<?xml version="1.0" encoding="UTF-8" standalone="no"?>
<!-- Created with Inkscape (http://www.inkscape.org/) -->

<svg
   xmlns:dc="http://purl.org/dc/elements/1.1/"
   xmlns:cc="http://creativecommons.org/ns#"
   xmlns:rdf="http://www.w3.org/1999/02/22-rdf-syntax-ns#"
   xmlns:svg="http://www.w3.org/2000/svg"
   xmlns="http://www.w3.org/2000/svg"
   xmlns:sodipodi="http://sodipodi.sourceforge.net/DTD/sodipodi-0.dtd"
   xmlns:inkscape="http://www.inkscape.org/namespaces/inkscape"
   version="1.1"
   id="svg2"
   width="822.13055"
   height="416.42749"
   viewBox="0 0 822.13055 416.42749"
   sodipodi:docname="LOGO1.svg"
   inkscape:version="0.92.4 (5da689c313, 2019-01-14)">
  <metadata
     id="metadata8">
    <rdf:RDF>
      <cc:Work
         rdf:about="">
        <dc:format>image/svg+xml</dc:format>
        <dc:type
           rdf:resource="http://purl.org/dc/dcmitype/StillImage" />
        <dc:title></dc:title>
      </cc:Work>
    </rdf:RDF>
  </metadata>
  <defs
     id="defs6" />
  <sodipodi:namedview
     pagecolor="#ffffff"
     bordercolor="#666666"
     borderopacity="1"
     objecttolerance="10"
     gridtolerance="10"
     guidetolerance="10"
     inkscape:pageopacity="0"
     inkscape:pageshadow="2"
     inkscape:window-width="1920"
     inkscape:window-height="1001"
     id="namedview4"
     showgrid="false"
     showborder="false"
     fit-margin-top="0"
     fit-margin-left="0"
     fit-margin-right="0"
     fit-margin-bottom="0"
     inkscape:zoom="0.812793"
     inkscape:cx="439.94521"
     inkscape:cy="125.43855"
     inkscape:window-x="-9"
     inkscape:window-y="-9"
     inkscape:window-maximized="1"
     inkscape:current-layer="svg2" />
  <path
     style="fill:#ea3134;fill-opacity:1;stroke-width:1.34121323"
     d="m 97.082431,393.01933 c 0,0 5.792599,1.16613 14.105659,3.86407 l 11.40031,3.69988 -11.46952,3.57277 c -6.30825,1.96502 -14.25766,3.79025 -14.25766,3.79025 -0.35105,-4.83281 0,0 0.221211,-14.92697 z"
     id="path68"
     inkscape:connector-curvature="0"
     sodipodi:nodetypes="cscccc" />
  <path
     style="fill:#ea3134;fill-opacity:1;stroke-width:1.34121323"
     d="m 726.4243,407.27826 c 0,0 -5.86781,-1.60219 -17.05513,-3.7036 l -10.0591,-3.02984 12.07092,-3.76405 c 9.06878,-2.8279 14.83489,-3.56719 14.83489,-3.56719 0,0 0.58906,2.12036 0.58906,7.13856 0,7.43196 -0.38064,6.92612 -0.38064,6.92612 z"
     id="path66"
     inkscape:connector-curvature="0"
     sodipodi:nodetypes="cccscsc" />
  <path
     style="fill:#ea3234;fill-opacity:1;stroke-width:1.34121323"
     d="m 269.75695,326.25011 0.3649,-25.14775 13.41213,0.14849 c 12.5976,0.13947 14.59321,0.57243 32.85972,7.12898 21.19667,7.60828 30.40654,8.83422 35.01763,4.66125 3.08275,-2.78986 3.27661,-8.27315 0.4359,-12.32885 -2.98913,-4.26758 -10.33826,-7.67339 -28.31735,-13.12309 -20.04672,-6.07643 -28.1479,-9.95169 -36.49781,-17.45897 -9.78224,-8.79507 -14.19249,-18.5682 -14.19249,-31.45054 0,-18.31247 9.641,-32.57123 27.55328,-40.75043 20.86282,-9.5265 49.7686,-5.11624 62.94301,9.60344 5.83161,6.51563 5.97689,6.43379 7.70252,-4.33884 l 1.07423,-6.70606 17.74178,-0.37424 17.7418,-0.37423 v 26.86319 26.8632 h -18.61777 -18.61775 l -1.5946,-6.3327 c -3.40959,-13.54072 -20.33741,-22.58299 -33.17278,-17.7198 -8.99176,3.40688 -12.20734,10.64602 -7.63108,17.17957 2.5979,3.70902 13.68301,8.85354 32.02091,14.86063 7.37668,2.41644 17.83183,6.51449 23.23369,9.10676 27.21704,13.06109 36.12692,38.22107 21.32553,60.21964 -5.59437,8.31463 -12.51277,12.99654 -25.78223,17.44769 -9.34293,3.13403 -12.89655,3.60164 -27.49487,3.61802 -9.22084,0.0107 -23.72116,-0.77781 -32.2229,-1.75145 -20.72426,-2.37339 -36.88634,-1.49128 -43.43148,2.37044 -2.73446,1.61336 -5.25234,2.9334 -5.59529,2.9334 -0.34293,0 -0.45932,-11.31649 -0.25863,-25.14775 z"
     id="path64"
     inkscape:connector-curvature="0" />
  <path
     id="path60"
     style="fill:#ea3234;fill-opacity:1;stroke-width:1.34121323"
     d="m 589.68742,311.70856 c 7.04428,-8.14903 9.70227,-19.13818 9.70227,-40.11289 0,-14.15197 -0.56373,-19.64893 -2.7364,-26.68324 -5.07873,-16.44301 -17.11401,-24.57319 -27.83188,-18.80125 -9.03378,4.86502 -14.59332,18.19232 -15.89877,38.11245 -1.3541,20.66273 2.90841,38.49671 11.3321,47.41249 4.8793,5.16433 7.88668,6.30094 15.01472,5.67466 4.98835,-0.43827 6.79291,-1.40868 10.41796,-5.60222 z m -22.48685,38.86007 c -23.60687,-4.37057 -34.2373,-9.23397 -46.08603,-21.08425 -8.43455,-8.43565 -15.10072,-20.88406 -18.43068,-34.41748 -2.97443,-12.08848 -2.35319,-39.00733 1.16107,-50.31011 11.49778,-36.97978 43.45593,-56.48022 84.52589,-51.57654 15.10654,1.80369 23.84636,4.79675 34.68567,11.87856 9.1527,5.97985 11.9455,8.89003 18.16061,18.9238 14.3781,23.21226 15.70733,63.93511 2.93161,89.81348 -8.3835,16.98155 -23.74146,29.21894 -42.7472,34.06146 -8.50638,2.16736 -28.55414,3.75653 -34.20094,2.71108 z"
     inkscape:connector-curvature="0" />
  <path
     style="fill:#ea3234;fill-opacity:1;stroke-width:1.34121323"
     d="m 65.016097,337.65042 c -2.47714,-5.34808 -7.3454,-15.75925 -10.81835,-23.13592 -3.47295,-7.37668 -10.10586,-21.56001 -14.73981,-31.51851 -4.63393,-9.95851 -11.40168,-24.44361 -15.03944,-32.18912 -3.63776,-7.74551 -7.77924,-16.92252 -9.20328,-20.39336 -2.49551,-6.0823 -2.80786,-6.32492 -8.6332102,-6.70607 l -6.04400998,-0.39544 -0.38341,-13.0392 c -0.37098,-12.61613 -0.28395,-13.06352 2.68241998,-13.78874 1.68622,-0.41223 19.3615802,-0.58006 39.2786002,-0.37292 l 36.21275,0.3766 0.0563,12.74152 c 0.0326,7.37848 -0.53188,13.15628 -1.34121,13.7269 -0.76867,0.54196 -3.35911,0.99462 -5.75653,1.00591 -2.39741,0.0107 -4.35894,0.31959 -4.35894,0.68509 0,0.65452 9.92321,28.94827 20.17873,57.53499 5.35434,14.92494 6.1254,16.53438 7.33961,15.32017 1.20165,-1.20165 26.130193,-69.29509 26.130193,-71.3758 0,-1.32215 -1.67441,-2.12058 -5.02955,-2.39825 l -5.02955,-0.41627 v -13.41213 -13.41213 l 29.41095,-0.36213 c 16.80705,-0.20694 29.73938,0.1647 30.1773,0.86723 0.42149,0.67614 0.57404,7.02545 0.33901,14.10956 l -0.42734,12.88021 h -5.0874 -5.08738 l -5.75582,13.74743 c -3.16569,7.56109 -7.48272,17.97226 -9.5934,23.13593 -2.11068,5.16367 -4.39314,10.59558 -5.07213,12.07092 -0.67899,1.47533 -4.80494,11.13207 -9.16876,21.45941 -4.36383,10.32734 -11.19295,26.47105 -15.17584,35.87492 l -7.24162,17.09793 -19.157523,0.003 -19.15754,0.003 z"
     id="path58"
     inkscape:connector-curvature="0" />
  <path
     style="fill:#ea3234;fill-opacity:1;stroke-width:1.34121323"
     d="m 186.29602,333.31374 v -14.105 h 6.70607 6.70607 v -47.53958 -47.53958 l -6.37077,-0.40879 -6.37076,-0.40879 v -13.41213 -13.41213 h 34.87154 34.87155 v 13.41213 13.41213 l -6.37077,0.40879 c -5.90705,0.37904 -6.37076,0.66938 -6.37076,3.98903 0,1.96913 -0.0659,23.21105 -0.14631,47.20428 l -0.14633,43.62404 6.89852,0.40699 6.89852,0.40699 -0.38145,13.67574 -0.38142,13.67575 -35.20685,0.35757 -35.20685,0.35758 z"
     id="path56"
     inkscape:connector-curvature="0" />
  <path
     style="fill:#ea3234;fill-opacity:1;stroke-width:1.34121323"
     d="m 425.03197,333.29148 v -14.08274 h 6.70607 6.70606 v -47.53958 -47.53958 l -6.37076,-0.40879 -6.37076,-0.40879 -0.38859,-12.62944 c -0.28305,-9.19961 0.0811,-12.92749 1.34121,-13.7269 0.95139,-0.6036 16.96934,-1.1067 35.59544,-1.118 l 33.86563,-0.0205 v 14.08274 14.08274 h -6.72322 -6.72323 l 0.35247,47.27776 0.35246,47.27777 6.37076,0.40879 6.37076,0.40879 v 14.00925 14.00925 h -35.54215 -35.54215 z"
     id="path54"
     inkscape:connector-curvature="0" />
  <path
     style="fill:#ea3234;fill-opacity:1;stroke-width:1.34121323"
     d="m 657.06185,333.98593 v -13.43598 l 5.02955,-0.0205 c 2.76625,-0.0107 5.79183,-0.50443 6.7235,-1.09583 1.32339,-0.84009 1.61678,-11.47105 1.34122,-48.59845 l -0.35274,-47.52315 -6.41842,-0.41073 -6.41843,-0.41074 0.38297,-13.0014 0.38296,-13.00139 30.01034,-0.36142 c 27.38799,-0.32983 30.16715,-0.15403 31.80474,2.01182 0.98691,1.30528 13.05324,19.11327 26.81407,39.57331 13.76082,20.46005 25.58762,36.849 26.28202,36.41989 1.208,-0.74658 1.217,-41.97876 0.013,-48.47222 -0.4991,-2.68635 -1.3535,-3.01773 -7.781,-3.01773 h -7.2205 v -12.71597 c 0,-12.07351 0.1524,-12.75337 3.0178,-13.45606 1.6597,-0.40706 15.9939,-0.56944 31.8538,-0.36087 l 28.8361,0.37925 0.3838,13.07682 0.3839,13.07683 h -6.6079 -6.6079 l -0.672,5.02955 c -0.3696,2.76625 -0.7195,30.68025 -0.7777,62.03111 l -0.106,57.00156 h -22.5049 -22.505 l -26.84391,-40.13116 c -14.76413,-22.07215 -27.58948,-40.37971 -28.50078,-40.68348 -1.27819,-0.42606 -1.6569,5.57148 -1.6569,26.24025 0,30.17939 -0.67374,28.42073 10.88797,28.42073 h 6.64493 l -0.38386,13.07683 -0.38387,13.07683 -32.52442,0.35915 -32.52442,0.35915 z"
     id="path52"
     inkscape:connector-curvature="0" />
  <path
     style="fill:#00aa56;fill-opacity:1;stroke-width:1.34121323"
     d="m 400.97798,160.78224 c -20.37288,-24.76344 -47.53644,-49.3604 -70.56009,-63.893096 -31.05368,-19.60131 -68.20864,-28.10814 -107.58608,-24.6324 -18.14893,1.60194 -40.90754,6.46093 -57.32459,12.23886 -17.19038,6.05009 -14.36606,3.38221 7.52291,-7.10621 17.60299,-8.43475 36.87174,-15.3797 54.1729,-19.52529 13.35761,-3.20066 17.2276,-3.53284 40.907,-3.5112 24.04539,0.022 27.24294,0.31301 39.66657,3.61053 21.13935,5.61087 37.71055,12.93623 56.11215,24.80456 11.72685,7.56337 31.83488,23.672056 39.62776,31.746066 3.28867,3.40732 6.64067,6.19513 7.44887,6.19513 0.80822,0 3.54939,-2.18021 6.09151,-4.8449 13.41896,-14.066 40.56647,-34.190236 57.89345,-42.915966 27.7721,-13.9858 49.66398,-19.29979 79.5087,-19.29979 29.73557,0 54.77573,5.88915 87.7124,20.62892 14.02031,6.27436 31.42379,15.75862 25.08941,13.67284 -15.06834,-4.96171 -32.10081,-10.28491 -36.80545,-11.50289 -23.66384,-6.1263 -53.65496,-8.14968 -72.64508,-4.90109 -42.27249,7.23146 -73.10315,26.56026 -123.46423,77.404006 l -23.5456,23.77127 z"
     id="path50"
     inkscape:connector-curvature="0" />
  <path
     style="fill:#3c428e;fill-opacity:1;stroke-width:1.34121323"
     d="m 405.58438,86.594874 c -3.28044,-1.02965 -5.97828,-1.59714 -9.38849,-2.38739 l 3.35303,-1.32375 c 3.97453,-1.56911 18.30723,-1.82527 22.77564,-0.40704 2.5844,0.82024 2.77874,1.20258 1.09132,2.14692 -2.30578,1.29038 -15.76134,2.77788 -17.8315,1.97126 z"
     id="path48"
     inkscape:connector-curvature="0"
     sodipodi:nodetypes="ccsccc" />
  <path
     style="fill:#3c428e;fill-opacity:1;stroke-width:1.34121323"
     d="m 383.11906,76.336144 c -3.50392,-3.00329 -6.37076,-6.19766 -6.37076,-7.09858 0,-1.64544 7.1964,-4.85932 10.88083,-4.85932 1.08488,0 3.64545,3.41106 5.69015,7.58014 2.93417,5.98267 3.34638,7.8156 1.95592,8.69736 -3.24971,2.06077 -5.74792,1.17305 -12.15614,-4.3196 z"
     id="path46"
     inkscape:connector-curvature="0" />
  <path
     style="fill:#3c428e;fill-opacity:1;stroke-width:1.34121323"
     d="m 426.48294,80.569014 c -1.57571,-0.99735 -1.23051,-2.48911 2.01182,-8.69417 4.27104,-8.17374 5.69583,-8.74943 13.54123,-5.47143 4.82482,2.01594 4.83535,2.03827 2.30405,4.8906 -3.39557,3.82622 -12.63403,10.52515 -14.47975,10.49946 -0.81141,-0.0107 -2.33122,-0.5623 -3.37735,-1.22446 z"
     id="path44"
     inkscape:connector-curvature="0" />
  <path
     style="fill:#3c428e;fill-opacity:1;stroke-width:1.34121323"
     d="m 397.79482,72.760824 c -1.72094,-2.76625 -3.61648,-5.85146 -4.2123,-6.85601 -1.58284,-2.66866 1.62621,-4.16474 8.98413,-4.18847 4.14308,-0.0134 6.41763,0.5657 6.50478,1.65599 0.0738,0.92208 0.22458,4.54275 0.3353,8.04595 0.19998,6.32802 0.17306,6.36945 -4.14083,6.37076 -3.56781,10e-4 -4.90009,-0.89557 -7.47108,-5.02822 z"
     id="path42"
     inkscape:connector-curvature="0" />
  <path
     style="fill:#3c428e;fill-opacity:1;stroke-width:1.34121323"
     d="m 412.96105,69.743094 v -8.04728 h 7.37668 c 8.71745,0 9.22265,1.30866 3.9671,10.27656 -2.80325,4.7834 -4.11504,5.818 -7.37667,5.818 -3.95454,0 -3.96711,-0.0255 -3.96711,-8.04728 z"
     id="path40"
     inkscape:connector-curvature="0" />
  <path
     style="fill:#3c428e;fill-opacity:1;stroke-width:1.34121323"
     d="m 370.77875,58.678084 c -2.40964,-6.33615 -3.28808,-12.89209 -1.74243,-13.004 0.55325,-0.0401 4.28475,-0.0728 8.2922,-0.0728 7.88597,0 7.82395,-0.0622 9.52543,9.55749 0.85352,4.82556 0.81066,4.88012 -5.53226,7.04137 -3.51585,1.19797 -6.83857,2.17813 -7.38381,2.17813 -0.54526,0 -1.96686,-2.56507 -3.15913,-5.70016 z"
     id="path38"
     inkscape:connector-curvature="0" />
  <path
     style="fill:#3c428e;fill-opacity:1;stroke-width:1.34121323"
     d="m 439.72822,62.227394 -6.09257,-1.87156 1.35145,-7.37729 1.35146,-7.37729 h 9.24931 9.24932 l -0.94281,5.02955 c -1.39156,7.42344 -4.34169,13.7668 -6.32864,13.60779 -0.95974,-0.0769 -4.48662,-0.98184 -7.83752,-2.0112 z"
     id="path36"
     inkscape:connector-curvature="0" />
  <path
     style="fill:#3c428e;fill-opacity:1;stroke-width:1.34121323"
     d="m 391.09821,58.061354 c -0.34559,-0.58288 -1.0528,-3.62486 -1.57156,-6.75994 l -0.94322,-5.70016 h 10.17699 c 7.1765,0 10.21622,0.49429 10.31003,1.67652 0.0732,0.92208 0.28287,3.35755 0.46602,5.41214 0.18313,2.05461 -0.0276,3.93691 -0.46835,4.18291 -1.99794,1.11523 -17.40905,2.13451 -17.96991,1.18853 z"
     id="path34"
     inkscape:connector-curvature="0" />
  <path
     style="fill:#3c428e;fill-opacity:1;stroke-width:1.34121323"
     d="m 417.9906,58.036404 c -4.97767,-0.52067 -5.02955,-0.58751 -5.02955,-6.4806 v -5.95455 h 10.14949 c 9.02377,0 10.07618,0.26033 9.48861,2.34712 -0.36347,1.29092 -1.05564,4.30865 -1.53816,6.70607 -0.941,4.6755 -0.87271,4.65783 -13.07039,3.38191 z"
     id="path32"
     inkscape:connector-curvature="0" />
  <path
     style="fill:#3c428e;fill-opacity:1;stroke-width:1.34121323"
     d="m 368.20315,35.87746 c 0.75141,-4.8948 5.10958,-15.75926 6.32167,-15.75926 1.89158,0 12.95318,4.49805 12.95318,5.26724 0,0.5453 -0.68686,4.41161 -1.52636,8.59181 l -1.52637,7.60036 h -8.54859 -8.54858 z"
     id="path30"
     inkscape:connector-curvature="0" />
  <path
     style="fill:#3c428e;fill-opacity:1;stroke-width:1.34121323"
     d="m 389.39975,34.53624 c 0.50935,-3.87275 1.34155,-7.41641 1.8493,-7.8748 0.50776,-0.45838 4.69536,-0.53672 9.30578,-0.1741 l 8.38258,0.65933 v 7.21547 7.21547 h -10.23188 -10.23189 z"
     id="path28"
     inkscape:connector-curvature="0" />
  <path
     style="fill:#3c428e;fill-opacity:1;stroke-width:1.34121323"
     d="m 412.96105,34.20094 v -7.37667 l 5.70016,-0.0184 c 3.13509,-0.0107 6.9749,-0.36048 8.53292,-0.77867 3.24349,-0.87059 3.90292,0.301 5.25891,9.34339 l 0.93079,6.20694 h -10.2114 -10.21138 v -7.37668 z"
     id="path26"
     inkscape:connector-curvature="0" />
  <path
     style="fill:#3c428e;fill-opacity:1;stroke-width:1.34121323"
     d="m 435.76168,37.05102 c 0,-2.48963 -0.36178,-6.33549 -0.80395,-8.54637 -0.76346,-3.81727 -0.48115,-4.12977 5.60376,-6.20311 3.52425,-1.20083 6.58973,-2.18334 6.81216,-2.18334 1.20312,0 5.87651,11.25755 6.6303,15.97148 l 0.87755,5.48793 h -9.55991 -9.55991 z"
     id="path24"
     inkscape:connector-curvature="0" />
  <path
     style="fill:#3c428e;fill-opacity:1;stroke-width:1.34121323"
     d="m 397.87241,23.19205 c -2.76626,-0.30434 -5.02955,-1.18967 -5.02955,-1.9674 0,-0.77773 1.60478,-4.36257 3.56619,-7.96631 3.16938,-5.82321 4.06479,-6.55227 8.04728,-6.55227 4.8245,0 4.62606,-0.44342 4.95208,11.06501 0.17846,6.29985 -0.52839,6.63202 -11.536,5.42097 z"
     id="path22"
     inkscape:connector-curvature="0" />
  <path
     style="fill:#3c428e;fill-opacity:1;stroke-width:1.34121323"
     d="M 412.96105,15.54981 V 6.70607 h 4.47095 c 4.05728,0 4.79307,0.65149 7.9525,7.04137 1.91485,3.87275 3.07154,7.43257 2.57042,7.91072 -0.50112,0.47814 -4.07974,1.2892 -7.9525,1.80237 l -7.04137,0.93303 z"
     id="path20"
     inkscape:connector-curvature="0" />
  <path
     style="fill:#3c428e;fill-opacity:1;stroke-width:1.34121323"
     d="m 382.17545,19.0612 -5.97316,-2.03097 7.07262,-6.50329 c 4.40756,-4.05277 8.30083,-6.5033 10.3321,-6.5033 1.79272,0 3.25949,0.31318 3.25949,0.69596 0,0.67954 -7.83677,15.70566 -8.42233,16.14888 -0.16255,0.12299 -2.98349,-0.69025 -6.26872,-1.80728 z"
     id="path18"
     inkscape:connector-curvature="0" />
  <path
     style="fill:#3c428e;fill-opacity:1;stroke-width:1.34121323"
     d="m 429.15635,13.84457 c -4.88672,-9.02237 -4.99354,-9.82093 -1.31369,-9.82093 3.85988,0 17.30751,9.74131 17.30751,12.53737 0,0.53642 -10.08634,4.8984 -11.32672,4.8984 -0.2985,0 -2.39869,-3.42667 -4.6671,-7.61484 z"
     id="path16"
     inkscape:connector-curvature="0" />
  <path
     style="fill:#3c428e;fill-opacity:1;stroke-width:1.34121323"
     d="M 403.88241,3.05152 C 396.00431,2.07612 400.81226,0 410.94923,0 c 10.73029,0 14.40517,1.83457 6.34413,3.1671 -6.66852,0.761866 -8.99146,0.428957 -13.41095,-0.11558 z"
     id="path12"
     inkscape:connector-curvature="0"
     sodipodi:nodetypes="cscc" />
  <g
     aria-label="EXCELLENCE"
     transform="translate(152.17359,-114.70634)"
     style="font-style:normal;font-weight:normal;font-size:40px;line-height:0;font-family:sans-serif;letter-spacing:0px;word-spacing:0px;fill:#3a3d83;fill-opacity:1;stroke:none"
     id="flowRoot91">
    <path
       d="M 29.966797,530.56743 H 8.9316406 V 501.4854 H 29.966797 v 5.625 H 16.392578 v 5.01953 h 12.597656 v 5.625 H 16.392578 v 7.1875 h 13.574219 z"
       style="font-style:normal;font-variant:normal;font-weight:bold;font-stretch:normal;font-family:sans-serif;-inkscape-font-specification:'sans-serif Bold';letter-spacing:25px;fill:#3a3d83;fill-opacity:1"
       id="path99" />
    <path
       d="m 87.642578,530.56743 h -8.671875 l -6.269531,-9.57031 -6.386719,9.57031 h -8.28125 l 10.3125,-14.64844 -10.097656,-14.43359 h 8.652344 l 6.054687,9.0625 6.230469,-9.0625 h 8.300781 l -10.15625,14.14063 z"
       style="font-style:normal;font-variant:normal;font-weight:bold;font-stretch:normal;font-family:sans-serif;-inkscape-font-specification:'sans-serif Bold';letter-spacing:25px;fill:#3a3d83;fill-opacity:1"
       id="path101" />
    <path
       d="m 129.9668,531.13384 q -3.24219,0 -5.9961,-0.95703 -2.73437,-0.95703 -4.70703,-2.85157 -1.97265,-1.89453 -3.0664,-4.72656 -1.07422,-2.83203 -1.07422,-6.54297 0,-3.45703 1.03515,-6.26953 1.03516,-2.8125 3.00782,-4.82422 1.89453,-1.93359 4.6875,-2.98828 2.8125,-1.05469 6.13281,-1.05469 1.83594,0 3.30078,0.21485 1.48437,0.19531 2.73437,0.52734 1.3086,0.3711 2.36329,0.83985 1.07421,0.44921 1.875,0.83984 v 7.05078 h -0.85938 q -0.54687,-0.46875 -1.38672,-1.11328 -0.82031,-0.64453 -1.875,-1.26953 -1.07422,-0.625 -2.32422,-1.05469 -1.25,-0.42969 -2.67578,-0.42969 -1.58203,0 -3.00781,0.50782 -1.42578,0.48828 -2.63672,1.64062 -1.15234,1.11328 -1.875,2.94922 -0.70312,1.83594 -0.70312,4.45312 0,2.73438 0.76171,4.57032 0.78125,1.83593 1.95313,2.89062 1.19141,1.07422 2.65625,1.54297 1.46484,0.44922 2.89062,0.44922 1.36719,0 2.69532,-0.41016 1.34765,-0.41015 2.48047,-1.11328 0.95703,-0.5664 1.77734,-1.21094 0.82031,-0.64453 1.34766,-1.11328 h 0.78125 v 6.95313 q -1.09375,0.48828 -2.08985,0.91797 -0.99609,0.42968 -2.08984,0.74218 -1.42578,0.41016 -2.67578,0.625 -1.25,0.21485 -3.4375,0.21485 z"
       style="font-style:normal;font-variant:normal;font-weight:bold;font-stretch:normal;font-family:sans-serif;-inkscape-font-specification:'sans-serif Bold';letter-spacing:25px;fill:#3a3d83;fill-opacity:1"
       id="path103" />
    <path
       d="M 191.8418,530.56743 H 170.80664 V 501.4854 h 21.03516 v 5.625 h -13.57422 v 5.01953 h 12.59765 v 5.625 h -12.59765 v 7.1875 h 13.57422 z"
       style="font-style:normal;font-variant:normal;font-weight:bold;font-stretch:normal;font-family:sans-serif;-inkscape-font-specification:'sans-serif Bold';letter-spacing:25px;fill:#3a3d83;fill-opacity:1"
       id="path105" />
    <path
       d="M 244.12695,530.56743 H 223.15039 V 501.4854 h 7.5 v 23.45703 h 13.47656 z"
       style="font-style:normal;font-variant:normal;font-weight:bold;font-stretch:normal;font-family:sans-serif;-inkscape-font-specification:'sans-serif Bold';letter-spacing:25px;fill:#3a3d83;fill-opacity:1"
       id="path107" />
    <path
       d="M 294.5957,530.56743 H 273.61914 V 501.4854 h 7.5 v 23.45703 h 13.47656 z"
       style="font-style:normal;font-variant:normal;font-weight:bold;font-stretch:normal;font-family:sans-serif;-inkscape-font-specification:'sans-serif Bold';letter-spacing:25px;fill:#3a3d83;fill-opacity:1"
       id="path109" />
    <path
       d="M 345.12305,530.56743 H 324.08789 V 501.4854 h 21.03516 v 5.625 h -13.57422 v 5.01953 h 12.59765 v 5.625 h -12.59765 v 7.1875 h 13.57422 z"
       style="font-style:normal;font-variant:normal;font-weight:bold;font-stretch:normal;font-family:sans-serif;-inkscape-font-specification:'sans-serif Bold';letter-spacing:25px;fill:#3a3d83;fill-opacity:1"
       id="path111" />
    <path
       d="m 402.87695,530.56743 h -7.22656 l -12.34375,-19.96094 v 19.96094 h -6.875 V 501.4854 h 8.96484 l 10.60547,16.66016 V 501.4854 h 6.875 z"
       style="font-style:normal;font-variant:normal;font-weight:bold;font-stretch:normal;font-family:sans-serif;-inkscape-font-specification:'sans-serif Bold';letter-spacing:25px;fill:#3a3d83;fill-opacity:1"
       id="path113" />
    <path
       d="m 448.48242,531.13384 q -3.24219,0 -5.99609,-0.95703 -2.73438,-0.95703 -4.70703,-2.85157 -1.97266,-1.89453 -3.06641,-4.72656 -1.07422,-2.83203 -1.07422,-6.54297 0,-3.45703 1.03516,-6.26953 1.03515,-2.8125 3.00781,-4.82422 1.89453,-1.93359 4.6875,-2.98828 2.8125,-1.05469 6.13281,-1.05469 1.83594,0 3.30078,0.21485 1.48438,0.19531 2.73438,0.52734 1.30859,0.3711 2.36328,0.83985 1.07422,0.44921 1.875,0.83984 v 7.05078 h -0.85937 q -0.54688,-0.46875 -1.38672,-1.11328 -0.82032,-0.64453 -1.875,-1.26953 -1.07422,-0.625 -2.32422,-1.05469 -1.25,-0.42969 -2.67578,-0.42969 -1.58203,0 -3.00782,0.50782 -1.42578,0.48828 -2.63671,1.64062 -1.15235,1.11328 -1.875,2.94922 -0.70313,1.83594 -0.70313,4.45312 0,2.73438 0.76172,4.57032 0.78125,1.83593 1.95312,2.89062 1.19141,1.07422 2.65625,1.54297 1.46485,0.44922 2.89063,0.44922 1.36719,0 2.69531,-0.41016 1.34766,-0.41015 2.48047,-1.11328 0.95703,-0.5664 1.77734,-1.21094 0.82032,-0.64453 1.34766,-1.11328 h 0.78125 v 6.95313 q -1.09375,0.48828 -2.08984,0.91797 -0.9961,0.42968 -2.08985,0.74218 -1.42578,0.41016 -2.67578,0.625 -1.25,0.21485 -3.4375,0.21485 z"
       style="font-style:normal;font-variant:normal;font-weight:bold;font-stretch:normal;font-family:sans-serif;-inkscape-font-specification:'sans-serif Bold';letter-spacing:25px;fill:#3a3d83;fill-opacity:1"
       id="path115" />
    <path
       d="M 510.35742,530.56743 H 489.32227 V 501.4854 h 21.03515 v 5.625 H 496.7832 v 5.01953 h 12.59766 v 5.625 H 496.7832 v 7.1875 h 13.57422 z"
       style="font-style:normal;font-variant:normal;font-weight:bold;font-stretch:normal;font-family:sans-serif;-inkscape-font-specification:'sans-serif Bold';letter-spacing:25px;fill:#3a3d83;fill-opacity:1"
       id="path117" />
  </g>
</svg>
